<svg width="150" height="50" viewBox="0 0 150 50" fill="none" xmlns="http://www.w3.org/2000/svg">
<path d="M24.9999 29.1666C30.7529 29.1666 35.4166 24.5029 35.4166 18.7499C35.4166 14.7311 32.2115 8.33325 32.2115 8.33325H17.7884C17.7884 8.33325 14.5833 12.997 14.5833 18.7499C14.5833 24.5029 19.247 29.1666 24.9999 29.1666ZM24.9999 29.1666V41.6666M24.9999 41.6666H16.6666M24.9999 41.6666H33.3333" stroke="#219653" stroke-width="3" stroke-linejoin="round"/>
<path d="M91.6667 37.2008C86.5994 40.1265 80.8513 41.6667 75.0001 41.6667C69.1489 41.6667 63.4007 40.1265 58.3334 37.2008L75.0001 8.33333L91.6667 37.2008Z" stroke="#219653" stroke-width="3" stroke-linejoin="round"/>
<path d="M91.6667 37.2008C86.5994 40.1265 80.8513 41.6667 75.0001 41.6667C69.1489 41.6667 63.4007 40.1265 58.3334 37.2008L75.0001 8.33333L91.6667 37.2008Z" stroke="#219653" stroke-width="3" stroke-linejoin="round"/>
<path d="M61.4563 31.7922C65.4404 34.0974 70.0662 35.4168 75.0002 35.4168C79.9342 35.4168 84.56 34.0974 88.5441 31.7922" stroke="#219653" stroke-width="3" stroke-linejoin="round"/>
<ellipse cx="70.8333" cy="29.1666" rx="2.08333" ry="2.08333" fill="#219653"/>
<circle cx="77.0833" cy="27.0833" r="2.08333" fill="#219653"/>
<ellipse cx="75.0001" cy="20.8333" rx="2.08333" ry="2.08333" fill="#219653"/>
<path d="M116.667 8.33325V41.6666" stroke="#219653" stroke-width="3" stroke-linecap="round" stroke-linejoin="round"/>
<path d="M137.5 24.9999C137.5 24.9999 131.25 22.9166 131.25 16.6666C131.25 10.4166 137.5 8.33325 137.5 8.33325V41.6666" stroke="#219653" stroke-width="3" stroke-linecap="round" stroke-linejoin="round"/>
<path d="M110.417 8.33325V17.8333C110.417 19.4901 111.76 20.8333 113.417 20.8333H119.917C121.574 20.8333 122.917 19.4901 122.917 17.8333V8.33325" stroke="#219653" stroke-width="3" stroke-linecap="round" stroke-linejoin="round"/>
</svg>
